<?xml version="1.0" standalone="no"?><!DOCTYPE svg PUBLIC "-//W3C//DTD SVG 1.1//EN" "http://www.w3.org/Graphics/SVG/1.1/DTD/svg11.dtd" ><svg xmlns="http://www.w3.org/2000/svg"><metadata></metadata><defs><font id="Benmo Jianzi" horiz-adv-x="1000"><font-face font-family="Benmo Jianzi" font-weight="400" font-stretch="normal" units-per-em="1000" panose-1="2 0 0 0 0 0 0 0 0 0" ascent="880" descent="-120" x-height="0" bbox="0 -103 986 837" underline-thickness="50" underline-position="-151" unicode-range="U+0030-ff1f" /><missing-glyph horiz-adv-x="244"  /><glyph glyph-name="" unicode="0" d="M562 759 l16 -785 l-536 -22 l6 796 l514 11 ZM178 91 l264 2 l-1 543 l-273 -18 l10 -527 Z" /><glyph glyph-name="" unicode="4" d="M556 218 l-102 -6 l-4 -270 l-125 -1 l-3 262 l-285 -18 l26 575 l147 -8 l-41 -434 l151 13 l-4 429 l146 9 l-6 -427 l94 7 l6 -131 Z" /><glyph glyph-name="" unicode="f" d="M50 754 l578 -4 l-8 -129 l-436 11 l15 -684 l-143 -5 l-6 811 ZM215 422 l394 15 l6 -138 l-394 2 l-6 121 Z" /><glyph glyph-name="" unicode="n" d="M487 763 l136 3 l0 -806 l-133 -7 l-324 546 l28 -544 l-137 -5 l-5 801 l93 6 l363 -605 l-21 611 Z" /><glyph glyph-name="" unicode="d" d="M419 770 l139 -3 l-17 -807 l-481 -6 l-12 559 l372 11 l-1 246 ZM178 391 l7 -315 l237 14 l-1 297 l-243 4 Z" /><glyph glyph-name="" unicode="n" d="M503 509 l12 -568 l-143 -6 l-3 446 l-172 -53 l4 -387 l-150 -6 l7 584 l136 3 l1 -63 l156 58 l152 -8 Z" /><glyph glyph-name="" unicode="o" d="M52 503 l522 13 l-8 -562 l-501 -10 l-13 559 ZM433 83 l6 298 l-253 1 l5 -315 l242 16 Z" /><glyph glyph-name="" unicode="t" d="M219 82 l98 18 l8 -134 l-229 -12 l0 422 l-66 -5 l-3 131 l69 2 l0 205 l147 -6 l-8 -195 l102 3 l5 -118 l-111 -7 l-12 -304 Z" /><glyph glyph-name="" unicode="u" d="M512 -56 l-139 -6 l-1 34 l-309 -27 l-11 571 l143 6 l2 -443 l173 24 l-7 411 l147 8 l2 -578 Z" /><glyph glyph-name="" unicode="&#x4e0d;" d="M484 527 l58 4 l26 -612 l-146 -7 l4 546 l-302 -362 l-113 82 l313 344 l103 122 l-367 -16 l-5 134 l888 10 l6 -105 l-362 -16 l-103 -124 ZM671 526 l307 -362 l-122 -83 l-282 385 l97 60 Z" /><glyph glyph-name="" unicode="&#x4e2a;" d="M495 837 l491 -297 l-108 -130 l-384 293 l-392 -303 l-102 111 l495 326 ZM434 559 l131 6 l27 -661 l-157 -7 l-1 662 Z" /><glyph glyph-name="" unicode="&#x4e86;" d="M908 678 l-276 -239 l31 -507 l-414 5 l14 135 l253 -18 l-17 412 l202 188 l-634 -43 l-8 149 l837 17 l12 -99 Z" /><glyph glyph-name="" unicode="&#x4f60;" d="M508 399 l-131 -6 l-11 365 l548 17 l-7 -345 l-135 -4 l18 223 l-301 -24 l19 -226 ZM585 586 l107 8 l40 -660 l-206 -6 l8 125 l67 -6 l-16 539 ZM333 -40 l92 362 l97 -16 l-55 -365 l-134 19 ZM849 347 l97 -372 l-133 -20 l-60 376 l96 16 ZM200 803 l130 -39 l-64 -141 l16 -694 l-127 -5 l-1 453 l-32 -71 l-101 38 l97 228 l82 231 Z" /><glyph glyph-name="" unicode="&#x51fa;" d="M911 323 l1 -369 l-814 -21 l-10 380 l130 7 l3 -268 l220 10 l-6 322 l-329 -6 l-7 386 l132 5 l-2 -281 l204 8 l-6 305 l146 5 l-3 -305 l206 8 l-9 241 l134 6 l-5 -363 l-327 -6 l-3 -320 l228 10 l-15 240 l132 6 Z" /><glyph glyph-name="" unicode="&#x53bb;" d="M650 217 l153 25 l115 -291 l-818 -13 l183 339 l-232 -11 l-7 136 l398 7 l-4 170 l-337 -16 l-8 135 l342 7 l-2 101 l136 5 l-1 -104 l345 7 l5 -112 l-352 -17 l-2 -174 l387 7 l5 -110 l-507 -24 l-138 -227 l408 23 l-69 137 Z" /><glyph glyph-name="" unicode="&#x53eb;" d="M78 746 l335 12 l4 -776 l-321 -12 l-18 776 ZM207 102 l98 6 l-9 527 l-107 -6 l18 -527 ZM908 -77 l-140 -7 l2 224 l-279 -21 l9 654 l131 -6 l-18 -514 l157 18 l4 533 l118 -3 l16 -878 Z" /><glyph glyph-name="" unicode="&#x54c8;" d="M462 234 l444 14 l9 -299 l-457 -14 l4 299 ZM586 41 l200 5 l-5 89 l-198 -6 l3 -88 ZM435 405 l491 3 l4 -96 l-490 -25 l-5 118 ZM680 704 l-123 -258 l-146 3 l201 351 l136 6 l226 -336 l-132 -19 l-162 253 ZM103 -24 l-22 776 l313 13 l-8 -776 l-283 -13 ZM274 626 l-77 -5 l18 -511 l66 2 l-7 514 Z" /><glyph glyph-name="" unicode="&#x56de;" d="M314 177 l-15 357 l402 4 l-5 -353 l-382 -8 ZM575 430 l-153 -7 l4 -130 l155 10 l-6 127 ZM84 761 l832 12 l-11 -819 l-809 -10 l-12 817 ZM212 52 l584 21 l-1 587 l-591 -7 l8 -601 Z" /><glyph glyph-name="" unicode="&#x56fe;" d="M732 498 l-130 -63 l183 -40 l-52 -94 l-252 76 l-198 -95 l-68 78 l143 54 l-88 26 l44 58 l162 -35 l126 58 l-319 -8 l28 130 l119 -13 l-12 -31 l296 10 l18 -111 ZM396 325 l279 -30 l-36 -85 l-277 50 l34 65 ZM281 153 l34 76 l389 -53 l-37 -97 l-386 74 ZM84 758 l832 12 l-11 -819 l-809 -10 l-12 817 ZM210 47 l588 21 l-1 591 l-595 -7 l8 -605 Z" /><glyph glyph-name="" unicode="&#x597d;" d="M404 237 l-69 -95 l142 -142 l-108 -79 l-105 124 l-94 -128 l-118 55 l134 165 l-85 100 l10 322 l-58 -5 l-11 143 l73 2 l3 105 l138 -6 l-7 -96 l166 4 l-11 -469 ZM216 260 l39 -39 l37 45 l4 307 l-57 -5 l-23 -308 ZM952 324 l-158 -14 l15 -370 l-288 -7 l11 140 l136 -11 l-6 236 l-199 -18 l-10 149 l206 6 l-2 67 l79 160 l-263 -27 l-14 136 l460 11 l-132 -291 l2 -52 l156 5 l7 -120 Z" /><glyph glyph-name="" unicode="&#x5f00;" d="M941 309 l-182 -9 l13 -376 l-144 -7 l-2 376 l-292 -15 l-94 -364 l-151 25 l115 332 l-144 -7 l-6 137 l175 4 l-9 228 l-143 -6 l-5 126 l829 15 l3 -105 l-158 -7 l9 -240 l180 4 l6 -111 ZM355 407 l270 6 l-2 238 l-271 -12 l3 -232 Z" /><glyph glyph-name="" unicode="&#x5feb;" d="M960 255 l-311 -19 l-58 -319 l-151 20 l86 291 l-91 -5 l-8 130 l128 3 l-7 209 l-121 -9 l-8 134 l125 4 l-3 108 l146 4 l-1 -108 l214 7 l-16 -343 l69 1 l7 -108 ZM684 575 l-4 -217 l74 1 l14 222 l-84 -6 ZM706 203 l106 20 l131 -278 l-149 -26 l-88 284 ZM187 -78 l-15 883 l128 3 l-1 -880 l-112 -6 ZM63 150 l33 509 l57 -3 l-9 -508 l-81 2 ZM325 653 l51 3 l32 -498 l-72 -6 l-11 501 Z" /><glyph glyph-name="" unicode="&#x601d;" d="M851 309 l-720 -16 l-10 470 l744 9 l-14 -463 ZM732 413 l10 249 l-177 -1 l-1 -74 l148 1 l1 -96 l-151 -6 l-1 -79 l171 6 ZM436 660 l-187 0 l2 -263 l190 6 l-2 78 l-161 -7 l-6 110 l165 2 l-1 74 ZM453 85 l2 188 l90 5 l20 -184 l-112 -9 ZM622 49 l-11 207 l133 3 l-5 -307 l-467 -19 l-13 312 l127 5 l-3 -203 l239 2 ZM70 -43 l66 294 l84 -10 l-35 -301 l-115 17 ZM866 266 l76 -288 l-120 -24 l-44 297 l88 15 Z" /><glyph glyph-name="" unicode="&#x610f;" d="M445 58 l2 85 l105 4 l20 -83 l-127 -6 ZM622 132 l131 6 l4 -187 l-506 -15 l-6 193 l136 1 l-4 -98 l253 8 l-8 92 ZM58 -51 l64 182 l93 -11 l-37 -186 l-120 15 ZM793 132 l91 15 l62 -183 l-127 -20 l-26 188 ZM853 492 l-9 -317 l-684 -17 l-8 314 l701 20 ZM281 250 l448 11 l-1 145 l-455 -15 l2 -41 l420 17 l5 -72 l-421 -12 l2 -33 ZM92 660 l-6 97 l352 4 l-8 49 l160 5 l-5 -52 l330 4 l4 -76 l-827 -31 ZM947 528 l-885 -29 l-7 101 l174 2 l-27 39 l152 13 l22 -50 l264 3 l18 62 l147 -13 l-31 -47 l168 2 l5 -83 Z" /><glyph glyph-name="" unicode="&#x6211;" d="M963 235 l-138 -82 l71 -222 l-144 -21 l-39 177 l-188 -111 l-62 95 l222 143 l-48 218 l-300 -17 l1 -122 l137 15 l19 -102 l-155 -25 l2 -244 l-252 -1 l10 116 l121 -7 l-2 116 l-142 -24 l-17 125 l156 17 l-3 129 l-150 -8 l-9 128 l155 3 l-2 96 l-119 -21 l-22 128 l376 47 l24 -107 l-130 -24 l1 -116 l277 7 l-56 254 l137 15 l49 -266 l191 5 l6 -101 l-177 -9 l29 -156 l91 58 l80 -106 ZM895 628 l-106 -12 l-35 156 l130 13 l11 -157 Z" /><glyph glyph-name="" unicode="&#x63d2;" d="M737 407 l172 6 l7 -462 l-528 -10 l3 461 l181 1 l0 -104 l-69 -2 l0 -64 l65 3 l6 -106 l-70 -3 l1 -66 l99 3 l-7 394 l-225 -10 l-6 126 l229 2 l-1 71 l-206 -9 l-5 101 l528 40 l11 -119 l-203 -8 l-1 -75 l216 3 l5 -106 l-222 -10 l-4 -398 l86 3 l-2 65 l-56 -6 l-1 112 l54 -1 l-2 56 l-52 -1 l-3 113 ZM333 314 l12 -115 l-77 -13 l6 -262 l-130 -3 l-3 243 l-72 -13 l-14 139 l84 7 l-2 196 l-85 -9 l-6 137 l89 2 l-2 171 l120 6 l4 -176 l77 1 l3 -112 l-77 -8 l5 -197 l68 6 Z" /><glyph glyph-name="" unicode="&#x6765;" d="M953 268 l-381 -16 l9 -340 l-133 -6 l-3 341 l-386 -17 l-7 130 l391 5 l-2 241 l-347 -14 l-7 129 l353 4 l-1 88 l118 5 l3 -92 l359 4 l6 -104 l-362 -15 l6 -244 l378 5 l6 -104 ZM261 581 l56 -179 l-106 -16 l-78 168 l128 27 ZM786 399 l-106 12 l51 187 l134 -17 l-79 -182 ZM649 204 l106 27 l181 -267 l-144 -35 l-143 275 ZM71 -48 l175 265 l106 -27 l-137 -273 l-144 35 Z" /><glyph glyph-name="" unicode="&#x70b9;" d="M61 -69 l85 190 l97 -15 l-53 -189 l-129 14 ZM323 103 l98 16 l68 -185 l-123 -22 l-43 191 ZM549 107 l98 16 l69 -185 l-124 -22 l-43 191 ZM884 137 l69 -185 l-124 -22 l-43 191 l98 16 ZM152 168 l-11 357 l278 7 l-15 271 l145 5 l-2 -89 l372 17 l4 -114 l-378 -10 l-1 -76 l326 9 l-8 -361 l-710 -16 ZM743 428 l-474 -19 l4 -127 l467 9 l3 137 Z" /><glyph glyph-name="" unicode="&#x7247;" d="M266 374 l566 5 l18 -466 l-141 -4 l-2 352 l-452 -20 l-47 -326 l-133 8 l70 388 l-13 487 l132 6 l0 -196 l338 16 l-7 175 l134 7 l-2 -176 l214 10 l5 -128 l-681 -19 l1 -119 Z" /><glyph glyph-name="" unicode="&#x73a9;" d="M288 105 l89 2 l3 -107 l-307 -24 l-7 125 l99 2 l-4 219 l-88 -6 l-3 130 l89 1 l-3 179 l-88 -7 l-3 131 l305 5 l6 -112 l-86 -7 l-1 -187 l76 0 l3 -112 l-79 -6 l-1 -226 ZM950 -56 l-265 -9 l-2 408 l-279 -15 l-7 126 l542 15 l6 -111 l-130 -7 l-5 -292 l133 17 l7 -132 ZM912 662 l-488 -29 l-7 131 l491 8 l4 -110 ZM431 -77 l76 378 l113 -7 l-45 -380 l-144 9 Z" /><glyph glyph-name="" unicode="&#x7684;" d="M678 710 l236 17 l-5 -799 l-324 1 l12 131 l185 -15 l14 549 l-263 -14 l27 234 l145 -14 l-27 -90 ZM732 159 l-135 -23 l-43 368 l100 14 l78 -359 ZM347 707 l149 4 l2 -762 l-396 -12 l-20 762 l121 3 l-2 94 l162 -3 l-16 -86 ZM226 72 l150 5 l-11 507 l-161 -8 l8 -180 l121 11 l4 -134 l-119 -2 l8 -199 Z" /><glyph glyph-name="" unicode="&#x7b11;" d="M944 193 l-422 -19 l-354 -268 l-110 80 l278 180 l-273 -12 l-4 129 l375 5 l-3 74 l-329 -12 l-11 110 l404 14 l395 20 l9 -115 l-329 -12 l-4 -77 l375 5 l3 -102 ZM523 82 l82 80 l336 -148 l-96 -110 l-322 178 ZM929 770 l13 -121 l-416 -18 l34 194 l139 -17 l-18 -59 l248 21 ZM688 515 l-21 97 l102 12 l73 -95 l-154 -14 ZM500 766 l13 -121 l-451 -18 l35 194 l138 -17 l-17 -60 l282 22 ZM253 509 l-22 100 l108 12 l65 -98 l-151 -14 Z" /><glyph glyph-name="" unicode="&#x8c01;" d="M229 64 l91 14 l6 -121 l-221 -21 l18 439 l-73 -13 l-10 138 l218 13 l-29 -449 ZM251 560 l-105 -7 l-43 217 l142 14 l6 -224 ZM940 -45 l-566 -17 l15 473 l-63 11 l51 183 l50 204 l141 -26 l-33 -97 l109 0 l-21 84 l147 14 l3 -97 l154 0 l3 -106 l-151 -6 l1 -101 l143 5 l4 -116 l-147 -2 l1 -89 l142 5 l4 -117 l-146 -2 l1 -94 l156 1 l2 -110 ZM662 63 l-3 94 l-153 -3 l-2 -92 l158 1 ZM656 267 l-3 92 l-140 -2 l-3 -95 l146 5 ZM649 469 l-3 101 l-127 -5 l-3 -100 l133 4 Z" /><glyph glyph-name="" unicode="&#x8fd4;" d="M447 460 l6 -349 l-134 -2 l9 650 l582 27 l8 -115 l-474 -13 l1 -77 l458 4 l19 -131 l-129 -147 l164 -103 l-89 -92 l-152 106 l-112 -127 l-113 72 l123 126 l-123 86 l77 72 l125 -78 l105 108 l-351 -17 ZM209 46 l734 41 l6 -126 l-864 -33 l19 457 l-56 -9 l-7 138 l202 9 l-34 -477 ZM228 583 l-115 -10 l-31 199 l144 10 l2 -199 Z" /><glyph glyph-name="" unicode="&#xff01;" d="M588 792 l-9 -605 l-130 -9 l-9 611 l148 3 ZM437 -80 l9 189 l130 9 l17 -191 l-156 -7 Z" /><glyph glyph-name="" unicode="&#xff1f;" d="M358 127 l-13 251 l276 53 l-1 227 l-395 -20 l-6 146 l548 9 l-8 -454 l-265 -59 l14 -139 l-150 -14 ZM366 -88 l-4 160 l150 7 l13 -153 l-159 -14 Z" /></font>
</defs>
</svg>
